<svg width="29" height="28" viewBox="0 0 29 28" fill="none" xmlns="http://www.w3.org/2000/svg">
<circle cx="14.75" cy="14" r="12.5" stroke="#A9A7A5" stroke-width="3"/>
<path d="M15.968 21.528C15.968 22.2 15.392 22.728 14.696 22.728C13.976 22.728 13.4 22.2 13.4 21.528C13.4 20.856 13.976 20.328 14.696 20.328C15.392 20.328 15.968 20.856 15.968 21.528ZM13.856 8.712C13.856 8.136 14.288 7.752 14.912 7.776C15.56 7.776 15.992 8.184 15.992 8.64L15.8 16.008C15.776 17.04 15.608 18.816 14.792 18.864C14.264 18.888 13.88 17.808 13.88 15.984L13.856 8.712Z" fill="#A9A7A5"/>
</svg>
