<svg width="25" height="29" viewBox="0 0 25 29" fill="none" xmlns="http://www.w3.org/2000/svg">
<path d="M22.5 1H2.5C1.94772 1 1.5 1.44771 1.5 2V26.9062C1.5 27.747 2.47456 28.2125 3.12852 27.684L11.8715 20.619C12.2381 20.3227 12.7619 20.3227 13.1285 20.619L21.8715 27.684C22.5254 28.2125 23.5 27.747 23.5 26.9062V2C23.5 1.44772 23.0523 1 22.5 1Z" fill="#FFB338"/>
<path d="M22.5 1H2.5C1.94772 1 1.5 1.44771 1.5 2V26.9062C1.5 27.747 2.47456 28.2125 3.12852 27.684L11.8715 20.619C12.2381 20.3227 12.7619 20.3227 13.1285 20.619L21.8715 27.684C22.5254 28.2125 23.5 27.747 23.5 26.9062V2C23.5 1.44772 23.0523 1 22.5 1Z" fill="#999999" fill-opacity="0.2"/>
<path d="M22.5 1H2.5C1.94772 1 1.5 1.44771 1.5 2V26.9062C1.5 27.747 2.47456 28.2125 3.12852 27.684L11.8715 20.619C12.2381 20.3227 12.7619 20.3227 13.1285 20.619L21.8715 27.684C22.5254 28.2125 23.5 27.747 23.5 26.9062V2C23.5 1.44772 23.0523 1 22.5 1Z" stroke="#999999" stroke-width="2"/>
</svg>
