<svg width="20" height="20" viewBox="0 0 20 20" fill="none" xmlns="http://www.w3.org/2000/svg">
<g clip-path="url(#clip0_577_3141)">
<path d="M10 20C15.5228 20 20 15.5228 20 10C20 4.47715 15.5228 0 10 0C4.47715 0 0 4.47715 0 10C0 15.5228 4.47715 20 10 20Z" fill="#999999"/>
<path d="M8.81253 12.6406C8.82813 10.5937 9.43746 9.96873 10.4687 9.32813C11.125 8.92186 11.625 8.3594 11.625 7.53126C11.625 6.54687 10.875 5.9375 9.93746 5.9375C9.09373 5.9375 8.28126 6.45312 8.20313 7.6094H6.51562C6.57812 5.625 8.07813 4.53125 9.93746 4.53125C11.9687 4.53125 13.3281 5.75 13.3281 7.53126C13.3281 8.78126 12.7344 9.625 11.7344 10.2344C10.7969 10.7969 10.4375 11.375 10.4063 12.6406V12.7344H8.81253V12.6406ZM9.67186 16.1094C9.06253 16.1094 8.54686 15.6094 8.56253 15C8.54686 14.3906 9.06253 13.8906 9.67186 13.8906C10.2656 13.8906 10.7813 14.3906 10.7813 15C10.7813 15.6094 10.2656 16.1094 9.67186 16.1094Z" fill="white"/>
</g>
<defs>
<clipPath id="clip0_577_3141">
<rect width="20" height="20" fill="white"/>
</clipPath>
</defs>
</svg>
