<svg width="500" height="701" viewBox="0 0 500 701" fill="none" xmlns="http://www.w3.org/2000/svg">
<rect y="1" width="500" height="700" rx="20" fill="#FFE79F"/>
<mask id="path-2-inside-1_1113_4122" fill="white">
<path d="M0 637H500V681C500 692.046 491.046 701 480 701H20C8.95432 701 0 692.046 0 681V637Z"/>
</mask>
<path d="M0 637H500V681C500 692.046 491.046 701 480 701H20C8.95432 701 0 692.046 0 681V637Z" fill="#D69A80"/>
<path d="M0 636.5H500V637.5H0V636.5ZM500 701H0H500ZM0 701V637V701ZM500 637V701V637Z" fill="black" mask="url(#path-2-inside-1_1113_4122)"/>
<mask id="path-4-inside-2_1113_4122" fill="white">
<path fill-rule="evenodd" clip-rule="evenodd" d="M499.945 55.8793L262.596 1H324.742L499.945 41.51V55.8793Z"/>
</mask>
<path fill-rule="evenodd" clip-rule="evenodd" d="M499.945 55.8793L262.596 1H324.742L499.945 41.51V55.8793Z" fill="#E96163"/>
<path d="M499.945 55.8793L499.833 56.3665L500.445 56.5081V55.8793H499.945ZM262.596 1V0.5L262.483 1.48715L262.596 1ZM324.742 1L324.855 0.512852L324.799 0.5H324.742V1ZM499.945 41.51H500.445V41.1124L500.058 41.0228L499.945 41.51ZM500.058 55.3922L262.708 0.512852L262.483 1.48715L499.833 56.3665L500.058 55.3922ZM262.596 1.5H324.742V0.5H262.596V1.5ZM324.63 1.48715L499.833 41.9971L500.058 41.0228L324.855 0.512852L324.63 1.48715ZM499.445 41.51V55.8793H500.445V41.51H499.445Z" fill="black" mask="url(#path-4-inside-2_1113_4122)"/>
<path d="M401.492 32.2129L390.405 23.2568C389.546 22.5627 388.287 22.6965 387.593 23.5558L369.617 45.8082C368.425 47.2833 369.764 49.4339 371.613 49.0158L377.886 47.5979C379.145 47.3133 380.34 48.2787 380.327 49.5697L380.259 56.0001C380.239 57.8963 382.623 58.753 383.815 57.2779L401.791 35.0255C402.485 34.1663 402.351 32.907 401.492 32.2129Z" fill="#E96163" stroke="black" stroke-width="0.5"/>
<path d="M417.756 30.2782L404.981 32.0716C403.887 32.2251 403.124 33.2363 403.278 34.3302L406.455 56.9608C406.711 58.7851 409.088 59.3223 410.104 57.7854L412.979 53.435C413.642 52.4317 415.034 52.2362 415.948 53.0182L419.91 56.4089C421.31 57.6067 423.447 56.4357 423.191 54.6114L420.014 31.9808C419.861 30.887 418.849 30.1247 417.756 30.2782Z" fill="#E96163" stroke="black" stroke-width="0.5"/>
<rect x="393.175" y="15.2951" width="25.671" height="15.8677" rx="2.75" transform="rotate(13.0538 393.175 15.2951)" fill="#E96163" stroke="black" stroke-width="0.5"/>
<path d="M424.214 18.342L416.517 20.4235C416.349 20.4691 416.194 20.5566 416.069 20.6779C415.9 20.8408 415.792 21.0563 415.762 21.2889L414.088 34.2215C414.03 34.6687 414.077 35.1232 414.224 35.5495C414.374 35.9845 414.625 36.3779 414.956 36.6976L415.918 37.6274C416.445 38.1366 417.036 38.5755 417.676 38.9332L425.301 43.1972L434.869 47.617C435.416 47.8693 436.01 48 436.612 48C437.488 48 438.341 47.7235 439.05 47.2098L439.098 47.1751C439.54 46.8547 439.918 46.4536 440.211 45.993L442.149 42.952C442.97 41.6632 443.662 40.2966 444.215 38.872L444.58 37.9332C445.587 35.34 446.266 32.6313 446.602 29.8699L447 26.6056V19.8195C447 19.4051 446.874 19.0004 446.638 18.6593C446.295 18.1612 445.748 17.8412 445.145 17.7857L436.603 17L431.026 17.2693C428.723 17.3805 426.439 17.7402 424.214 18.342Z" fill="#E96163" stroke="black" stroke-width="0.5"/>
<path d="M388.201 10.9505L393.944 16.0452C394.068 16.1551 394.162 16.2944 394.218 16.4503C394.294 16.6625 394.295 16.8943 394.221 17.1073L390.159 28.8017C390.017 29.2081 389.783 29.5757 389.474 29.8752C389.161 30.1787 388.78 30.4036 388.363 30.5313L387.129 30.9093C386.463 31.1132 385.773 31.2305 385.077 31.2583L376.697 31.5927L366.592 31.2219C366.014 31.2007 365.447 31.0556 364.93 30.7964C364.177 30.4187 363.56 29.8148 363.167 29.0693L363.146 29.0293C362.901 28.5635 362.746 28.0555 362.689 27.532L362.319 24.1338C362.161 22.6794 362.148 21.2129 362.279 19.7558L362.364 18.822C362.602 16.1824 363.172 13.5834 364.061 11.0865L365.104 8.1553L367.989 2.40135C368.168 2.04472 368.452 1.75162 368.802 1.56173C369.307 1.2886 369.906 1.25198 370.44 1.46164L378.131 4.48064L382.824 7.12031C384.748 8.20205 386.55 9.48605 388.201 10.9505Z" fill="#E96163" stroke="black" stroke-width="0.5"/>
</svg>
