<svg width="500" height="700" viewBox="0 0 500 700" fill="none" xmlns="http://www.w3.org/2000/svg">
<rect width="500" height="700" rx="20" fill="#FCE3E6"/>
<path d="M60 80.5H439" stroke="black"/>
<line x1="60" y1="110.5" x2="439" y2="110.5" stroke="black"/>
<line x1="60" y1="170.5" x2="439" y2="170.5" stroke="black"/>
<line x1="60" y1="200.5" x2="439" y2="200.5" stroke="black"/>
<line x1="60" y1="230.5" x2="439" y2="230.5" stroke="black"/>
<line x1="60" y1="260.5" x2="439" y2="260.5" stroke="black"/>
<line x1="60" y1="290.5" x2="439" y2="290.5" stroke="black"/>
<line x1="60" y1="320.5" x2="439" y2="320.5" stroke="black"/>
<line x1="60" y1="350.5" x2="439" y2="350.5" stroke="black"/>
<line x1="60" y1="380.5" x2="439" y2="380.5" stroke="black"/>
<line x1="60" y1="410.5" x2="439" y2="410.5" stroke="black"/>
<line x1="60" y1="440.5" x2="439" y2="440.5" stroke="black"/>
<line x1="60" y1="470.5" x2="439" y2="470.5" stroke="black"/>
<line x1="60" y1="500.5" x2="439" y2="500.5" stroke="black"/>
<line x1="60" y1="530.5" x2="439" y2="530.5" stroke="black"/>
<line x1="60" y1="560.5" x2="439" y2="560.5" stroke="black"/>
<path d="M60 140.5H439" stroke="black"/>
<line x1="349" y1="619.5" x2="439" y2="619.5" stroke="black"/>
<path d="M467.333 409.568L474.1 406.334L479.491 417.612L472.724 420.846L467.333 409.568Z" fill="white" stroke="black" stroke-width="0.5"/>
<path d="M473.951 205.951C473.057 204.083 473.848 201.844 475.717 200.951C477.585 200.058 479.824 200.848 480.717 202.717L482.874 207.228C483.767 209.097 482.976 211.336 481.107 212.229C479.239 213.122 477 212.331 476.107 210.463L473.951 205.951Z" fill="white" stroke="black" stroke-width="0.5"/>
<path d="M22.5193 442.049C21.8643 440.679 22.4442 439.037 23.8145 438.382L25.619 437.52C26.9893 436.865 28.6311 437.444 29.2861 438.815L32.3048 445.13C32.9597 446.501 32.3798 448.143 31.0095 448.797L29.205 449.66C27.8347 450.315 26.1929 449.735 25.538 448.365L22.5193 442.049Z" fill="white" stroke="black" stroke-width="0.5"/>
<path d="M40.3334 18.5675L47.1001 15.3331L52.4907 26.6111L45.7239 29.8454L40.3334 18.5675Z" fill="white" stroke="black" stroke-width="0.5"/>
<path d="M368.519 12.0486C367.864 10.6783 368.444 9.0365 369.815 8.38154L371.619 7.51905C372.989 6.86409 374.631 7.44399 375.286 8.81429L378.305 15.1299C378.96 16.5002 378.38 18.142 377.01 18.797L375.205 19.6595C373.835 20.3145 372.193 19.7346 371.538 18.3643L368.519 12.0486Z" fill="white" stroke="black" stroke-width="0.5"/>
<path d="M26.9431 578.006C27.1288 577.636 27.5795 577.486 27.9497 577.672L31.5798 579.493C31.95 579.678 32.0996 580.129 31.9139 580.499L26.6428 591.008C26.4571 591.378 26.0064 591.528 25.6362 591.342L22.0062 589.522C21.6359 589.336 21.4863 588.885 21.672 588.515L26.9431 578.006Z" fill="#FF9C9C" stroke="black" stroke-width="0.5"/>
<path d="M441.279 15.3356L446.25 17.8288L440.307 29.6786L435.336 27.1854L441.279 15.3356Z" fill="#FF9C9C" stroke="black" stroke-width="0.5"/>
<rect x="28.2794" y="264.336" width="5.56103" height="13.2569" rx="2.78051" transform="rotate(26.6371 28.2794 264.336)" fill="#FF9C9C" stroke="black" stroke-width="0.5"/>
<rect x="17.4241" y="218.332" width="5.17263" height="6.7234" rx="1.75" transform="rotate(64.9846 17.4241 218.332)" fill="#FFD79C" stroke="black" stroke-width="0.5"/>
<rect x="474.424" y="561.332" width="5.17263" height="6.7234" rx="1.75" transform="rotate(64.9846 474.424 561.332)" fill="#FFD79C" stroke="black" stroke-width="0.5"/>
<rect x="475.424" y="111.332" width="5.17263" height="6.7234" rx="1.75" transform="rotate(64.9846 475.424 111.332)" fill="#FF7067" stroke="black" stroke-width="0.5"/>
<rect x="111.279" y="21.3356" width="5.56103" height="13.2569" rx="0.75" transform="rotate(26.6371 111.279 21.3356)" fill="#FF9C9C" stroke="black" stroke-width="0.5"/>
<rect x="28.2794" y="104.336" width="5.56103" height="13.2569" transform="rotate(26.6371 28.2794 104.336)" fill="#9BB7FF" stroke="black" stroke-width="0.5"/>
<rect x="489.279" y="463.336" width="5.56103" height="13.2569" rx="2.78051" transform="rotate(26.6371 489.279 463.336)" fill="#9BB7FF" stroke="black" stroke-width="0.5"/>
<path d="M469.316 308.598L471.054 303.316L483.646 307.459L481.908 312.742L469.316 308.598Z" fill="#FF9C9C" stroke="black" stroke-width="0.5"/>
<path d="M12.6801 53.7115C11.9469 53.0818 11.863 51.977 12.4927 51.2438L13.8355 49.6802C14.4652 48.947 15.5701 48.8631 16.3033 49.4928L23.7051 55.8496C24.4383 56.4793 24.5222 57.5842 23.8925 58.3174L22.5497 59.881C21.92 60.6142 20.8152 60.6981 20.082 60.0684L12.6801 53.7115Z" fill="#FEFFD6" stroke="black" stroke-width="0.5"/>
<path d="M479.353 614.571L482.976 610.352L493.033 618.989L489.41 623.208L479.353 614.571Z" fill="#FEFFD6" stroke="black" stroke-width="0.5"/>
<path d="M5.35254 521.571L8.97569 517.352L19.0327 525.989L15.4096 530.208L5.35254 521.571Z" fill="#FEFFD6" stroke="black" stroke-width="0.5"/>
<path d="M8.35254 365.571L11.9757 361.352L22.0327 369.989L18.4096 374.208L8.35254 365.571Z" fill="#9BB7FF" stroke="black" stroke-width="0.5"/>
<path d="M476.974 53.0971C476.66 52.8273 476.624 52.3537 476.894 52.0395L479.54 48.9587C479.81 48.6445 480.283 48.6085 480.597 48.8784L489.516 56.5383C489.831 56.8081 489.867 57.2817 489.597 57.5959L486.951 60.6767C486.681 60.9909 486.208 61.0269 485.893 60.757L476.974 53.0971Z" fill="#9BB7FF" stroke="black" stroke-width="0.5"/>
<mask id="path-40-inside-1_1113_4153" fill="white">
<path d="M0 636H500V680C500 691.046 491.046 700 480 700H20C8.95432 700 0 691.046 0 680V636Z"/>
</mask>
<path d="M0 636H500V680C500 691.046 491.046 700 480 700H20C8.95432 700 0 691.046 0 680V636Z" fill="#B4EAE4"/>
<path d="M0 635.5H500V636.5H0V635.5ZM500 700H0H500ZM0 700V636V700ZM500 636V700V636Z" fill="black" mask="url(#path-40-inside-1_1113_4153)"/>
<rect x="40" y="40" width="420" height="620" rx="20" fill="white"/>
<mask id="path-43-outside-2_1113_4153" maskUnits="userSpaceOnUse" x="178" y="7" width="144" height="28" fill="black">
<rect fill="white" x="178" y="7" width="144" height="28"/>
<path d="M179.15 11.85C179.05 11.4167 179.1 11.0833 179.3 10.85C179.533 10.5833 179.9 10.45 180.4 10.45C180.867 10.45 181.217 10.65 181.45 11.05C181.717 11.4167 181.883 11.95 181.95 12.65L182.25 19.4L191.95 18.1L191.6 9.7C191.533 9.26667 191.6 8.93333 191.8 8.7C192.033 8.46667 192.4 8.35 192.9 8.35C193.367 8.35 193.717 8.53333 193.95 8.9C194.217 9.26667 194.383 9.8 194.45 10.5L195.45 31.9C195.45 32.5 195.333 32.95 195.1 33.25C194.867 33.5167 194.533 33.65 194.1 33.65C193.6 33.65 193.233 33.5167 193 33.25C192.767 32.9833 192.65 32.55 192.65 31.95L192.15 20.75L182.4 22.05L182.8 29.8C182.8 30.4 182.667 30.85 182.4 31.15C182.167 31.4167 181.833 31.55 181.4 31.55C180.933 31.55 180.583 31.4167 180.35 31.15C180.117 30.8833 180 30.45 180 29.85L179.15 11.85Z"/>
<path d="M220.293 10.95C222.526 13.6167 224.443 16.55 226.043 19.75C227.643 22.95 228.943 26.4333 229.943 30.2C230.076 30.8 230.043 31.2667 229.843 31.6C229.676 31.9333 229.376 32.15 228.943 32.25C228.476 32.4167 228.093 32.3833 227.793 32.15C227.493 31.8833 227.293 31.4667 227.193 30.9C226.86 29.6 226.476 28.3333 226.043 27.1C225.643 25.8333 225.21 24.6333 224.743 23.5L213.743 24.55C213.61 25.45 213.526 26.35 213.493 27.25C213.46 28.1167 213.46 29 213.493 29.9C213.493 30.5 213.36 30.95 213.093 31.25C212.86 31.5167 212.543 31.65 212.143 31.65C211.643 31.65 211.276 31.5167 211.043 31.25C210.81 30.9833 210.693 30.55 210.693 29.95C210.693 26.3833 211.11 23.05 211.943 19.95C212.81 16.85 214.143 13.9833 215.943 11.35C216.543 10.3833 217.21 9.86667 217.943 9.8C218.71 9.7 219.493 10.0833 220.293 10.95ZM223.593 20.95C222.893 19.55 222.126 18.2167 221.293 16.95C220.493 15.65 219.643 14.4333 218.743 13.3C218.543 13.1333 218.36 13.05 218.193 13.05C218.06 13.05 217.943 13.1333 217.843 13.3C217.01 14.7 216.293 16.1167 215.693 17.55C215.093 18.95 214.643 20.3667 214.343 21.8L223.593 20.95ZM311.275 19.25C310.975 19.4833 310.775 19.7167 310.675 19.95C310.575 20.15 310.525 20.35 310.525 20.55V30.25C310.525 30.85 310.392 31.2833 310.125 31.55C309.892 31.8167 309.558 31.95 309.125 31.95C308.625 31.95 308.258 31.8167 308.025 31.55C307.825 31.2833 307.725 30.85 307.725 30.25V20.8C307.725 20.5333 307.675 20.2833 307.575 20.05C307.475 19.7833 307.325 19.5 307.125 19.2L301.175 12.2C300.775 11.8 300.558 11.4 300.525 11C300.492 10.6 300.658 10.2167 301.025 9.85C301.325 9.55 301.642 9.41667 301.975 9.45C302.308 9.48333 302.642 9.66666 302.975 10L308.725 16.75C308.892 17.0167 309.042 17.1833 309.175 17.25C309.342 17.2833 309.508 17.25 309.675 17.15L318.575 10.4C319.008 10.0333 319.425 9.85 319.825 9.85C320.225 9.85 320.575 10.0333 320.875 10.4C321.142 10.7667 321.208 11.1333 321.075 11.5C320.942 11.8667 320.625 12.25 320.125 12.65L311.275 19.25Z"/>
<path d="M246.675 13.45L247.125 19.9L248.775 20.05C249.675 20.15 250.508 20.1333 251.275 20C252.075 19.8667 252.792 19.5833 253.425 19.15C254.025 18.7833 254.475 18.3 254.775 17.7C255.075 17.1 255.225 16.3833 255.225 15.55C255.225 14.85 255.108 14.2333 254.875 13.7C254.642 13.1333 254.325 12.7 253.925 12.4C253.458 12.1 252.925 11.9 252.325 11.8C251.725 11.6667 251.042 11.6 250.275 11.6L248.025 11.8C247.525 11.8333 247.158 12 246.925 12.3C246.725 12.5667 246.642 12.95 246.675 13.45ZM247.375 22.6L247.925 30.95C247.958 31.55 247.842 32 247.575 32.3C247.308 32.5667 246.925 32.65 246.425 32.55C246.025 32.5167 245.708 32.35 245.475 32.05C245.275 31.75 245.158 31.3 245.125 30.7L243.925 13.5C243.758 12.2 243.942 11.2 244.475 10.5C245.042 9.8 245.925 9.38333 247.125 9.25L250.225 9C251.325 8.9 252.325 8.98333 253.225 9.25C254.158 9.51667 255.008 9.91667 255.775 10.45C256.475 11.05 257.025 11.7667 257.425 12.6C257.825 13.4333 258.025 14.4167 258.025 15.55C258.025 16.6833 257.792 17.7167 257.325 18.65C256.858 19.55 256.192 20.3333 255.325 21C254.425 21.7333 253.392 22.25 252.225 22.55C251.092 22.8167 249.825 22.85 248.425 22.65L247.375 22.6Z"/>
<path d="M274.8 13.45L275.25 19.9L276.9 20.05C277.8 20.15 278.633 20.1333 279.4 20C280.2 19.8667 280.917 19.5833 281.55 19.15C282.15 18.7833 282.6 18.3 282.9 17.7C283.2 17.1 283.35 16.3833 283.35 15.55C283.35 14.85 283.233 14.2333 283 13.7C282.767 13.1333 282.45 12.7 282.05 12.4C281.583 12.1 281.05 11.9 280.45 11.8C279.85 11.6667 279.167 11.6 278.4 11.6L276.15 11.8C275.65 11.8333 275.283 12 275.05 12.3C274.85 12.5667 274.767 12.95 274.8 13.45ZM275.5 22.6L276.05 30.95C276.083 31.55 275.967 32 275.7 32.3C275.433 32.5667 275.05 32.65 274.55 32.55C274.15 32.5167 273.833 32.35 273.6 32.05C273.4 31.75 273.283 31.3 273.25 30.7L272.05 13.5C271.883 12.2 272.067 11.2 272.6 10.5C273.167 9.8 274.05 9.38333 275.25 9.25L278.35 9C279.45 8.9 280.45 8.98333 281.35 9.25C282.283 9.51667 283.133 9.91667 283.9 10.45C284.6 11.05 285.15 11.7667 285.55 12.6C285.95 13.4333 286.15 14.4167 286.15 15.55C286.15 16.6833 285.917 17.7167 285.45 18.65C284.983 19.55 284.317 20.3333 283.45 21C282.55 21.7333 281.517 22.25 280.35 22.55C279.217 22.8167 277.95 22.85 276.55 22.65L275.5 22.6Z"/>
</mask>
<path d="M179.15 11.85C179.05 11.4167 179.1 11.0833 179.3 10.85C179.533 10.5833 179.9 10.45 180.4 10.45C180.867 10.45 181.217 10.65 181.45 11.05C181.717 11.4167 181.883 11.95 181.95 12.65L182.25 19.4L191.95 18.1L191.6 9.7C191.533 9.26667 191.6 8.93333 191.8 8.7C192.033 8.46667 192.4 8.35 192.9 8.35C193.367 8.35 193.717 8.53333 193.95 8.9C194.217 9.26667 194.383 9.8 194.45 10.5L195.45 31.9C195.45 32.5 195.333 32.95 195.1 33.25C194.867 33.5167 194.533 33.65 194.1 33.65C193.6 33.65 193.233 33.5167 193 33.25C192.767 32.9833 192.65 32.55 192.65 31.95L192.15 20.75L182.4 22.05L182.8 29.8C182.8 30.4 182.667 30.85 182.4 31.15C182.167 31.4167 181.833 31.55 181.4 31.55C180.933 31.55 180.583 31.4167 180.35 31.15C180.117 30.8833 180 30.45 180 29.85L179.15 11.85Z" fill="#F9B1BF"/>
<path d="M220.293 10.95C222.526 13.6167 224.443 16.55 226.043 19.75C227.643 22.95 228.943 26.4333 229.943 30.2C230.076 30.8 230.043 31.2667 229.843 31.6C229.676 31.9333 229.376 32.15 228.943 32.25C228.476 32.4167 228.093 32.3833 227.793 32.15C227.493 31.8833 227.293 31.4667 227.193 30.9C226.86 29.6 226.476 28.3333 226.043 27.1C225.643 25.8333 225.21 24.6333 224.743 23.5L213.743 24.55C213.61 25.45 213.526 26.35 213.493 27.25C213.46 28.1167 213.46 29 213.493 29.9C213.493 30.5 213.36 30.95 213.093 31.25C212.86 31.5167 212.543 31.65 212.143 31.65C211.643 31.65 211.276 31.5167 211.043 31.25C210.81 30.9833 210.693 30.55 210.693 29.95C210.693 26.3833 211.11 23.05 211.943 19.95C212.81 16.85 214.143 13.9833 215.943 11.35C216.543 10.3833 217.21 9.86667 217.943 9.8C218.71 9.7 219.493 10.0833 220.293 10.95ZM223.593 20.95C222.893 19.55 222.126 18.2167 221.293 16.95C220.493 15.65 219.643 14.4333 218.743 13.3C218.543 13.1333 218.36 13.05 218.193 13.05C218.06 13.05 217.943 13.1333 217.843 13.3C217.01 14.7 216.293 16.1167 215.693 17.55C215.093 18.95 214.643 20.3667 214.343 21.8L223.593 20.95ZM311.275 19.25C310.975 19.4833 310.775 19.7167 310.675 19.95C310.575 20.15 310.525 20.35 310.525 20.55V30.25C310.525 30.85 310.392 31.2833 310.125 31.55C309.892 31.8167 309.558 31.95 309.125 31.95C308.625 31.95 308.258 31.8167 308.025 31.55C307.825 31.2833 307.725 30.85 307.725 30.25V20.8C307.725 20.5333 307.675 20.2833 307.575 20.05C307.475 19.7833 307.325 19.5 307.125 19.2L301.175 12.2C300.775 11.8 300.558 11.4 300.525 11C300.492 10.6 300.658 10.2167 301.025 9.85C301.325 9.55 301.642 9.41667 301.975 9.45C302.308 9.48333 302.642 9.66666 302.975 10L308.725 16.75C308.892 17.0167 309.042 17.1833 309.175 17.25C309.342 17.2833 309.508 17.25 309.675 17.15L318.575 10.4C319.008 10.0333 319.425 9.85 319.825 9.85C320.225 9.85 320.575 10.0333 320.875 10.4C321.142 10.7667 321.208 11.1333 321.075 11.5C320.942 11.8667 320.625 12.25 320.125 12.65L311.275 19.25Z" fill="#FFDC8C"/>
<path d="M246.675 13.45L247.125 19.9L248.775 20.05C249.675 20.15 250.508 20.1333 251.275 20C252.075 19.8667 252.792 19.5833 253.425 19.15C254.025 18.7833 254.475 18.3 254.775 17.7C255.075 17.1 255.225 16.3833 255.225 15.55C255.225 14.85 255.108 14.2333 254.875 13.7C254.642 13.1333 254.325 12.7 253.925 12.4C253.458 12.1 252.925 11.9 252.325 11.8C251.725 11.6667 251.042 11.6 250.275 11.6L248.025 11.8C247.525 11.8333 247.158 12 246.925 12.3C246.725 12.5667 246.642 12.95 246.675 13.45ZM247.375 22.6L247.925 30.95C247.958 31.55 247.842 32 247.575 32.3C247.308 32.5667 246.925 32.65 246.425 32.55C246.025 32.5167 245.708 32.35 245.475 32.05C245.275 31.75 245.158 31.3 245.125 30.7L243.925 13.5C243.758 12.2 243.942 11.2 244.475 10.5C245.042 9.8 245.925 9.38333 247.125 9.25L250.225 9C251.325 8.9 252.325 8.98333 253.225 9.25C254.158 9.51667 255.008 9.91667 255.775 10.45C256.475 11.05 257.025 11.7667 257.425 12.6C257.825 13.4333 258.025 14.4167 258.025 15.55C258.025 16.6833 257.792 17.7167 257.325 18.65C256.858 19.55 256.192 20.3333 255.325 21C254.425 21.7333 253.392 22.25 252.225 22.55C251.092 22.8167 249.825 22.85 248.425 22.65L247.375 22.6Z" fill="#FFA8B0"/>
<path d="M274.8 13.45L275.25 19.9L276.9 20.05C277.8 20.15 278.633 20.1333 279.4 20C280.2 19.8667 280.917 19.5833 281.55 19.15C282.15 18.7833 282.6 18.3 282.9 17.7C283.2 17.1 283.35 16.3833 283.35 15.55C283.35 14.85 283.233 14.2333 283 13.7C282.767 13.1333 282.45 12.7 282.05 12.4C281.583 12.1 281.05 11.9 280.45 11.8C279.85 11.6667 279.167 11.6 278.4 11.6L276.15 11.8C275.65 11.8333 275.283 12 275.05 12.3C274.85 12.5667 274.767 12.95 274.8 13.45ZM275.5 22.6L276.05 30.95C276.083 31.55 275.967 32 275.7 32.3C275.433 32.5667 275.05 32.65 274.55 32.55C274.15 32.5167 273.833 32.35 273.6 32.05C273.4 31.75 273.283 31.3 273.25 30.7L272.05 13.5C271.883 12.2 272.067 11.2 272.6 10.5C273.167 9.8 274.05 9.38333 275.25 9.25L278.35 9C279.45 8.9 280.45 8.98333 281.35 9.25C282.283 9.51667 283.133 9.91667 283.9 10.45C284.6 11.05 285.15 11.7667 285.55 12.6C285.95 13.4333 286.15 14.4167 286.15 15.55C286.15 16.6833 285.917 17.7167 285.45 18.65C284.983 19.55 284.317 20.3333 283.45 21C282.55 21.7333 281.517 22.25 280.35 22.55C279.217 22.8167 277.95 22.85 276.55 22.65L275.5 22.6Z" fill="#FFB3B3"/>
<path d="M179.15 11.85L179.649 11.8264L179.647 11.7814L179.637 11.7376L179.15 11.85ZM179.3 10.85L178.924 10.5207L178.92 10.5246L179.3 10.85ZM181.45 11.05L181.018 11.3019L181.031 11.3237L181.046 11.3441L181.45 11.05ZM181.95 12.65L182.45 12.6278L182.449 12.6152L182.448 12.6026L181.95 12.65ZM182.25 19.4L181.75 19.4222L181.775 19.9682L182.316 19.8956L182.25 19.4ZM191.95 18.1L192.016 18.5956L192.469 18.535L192.45 18.0792L191.95 18.1ZM191.6 9.7L192.1 9.67918L192.098 9.65143L192.094 9.62397L191.6 9.7ZM191.8 8.7L191.446 8.34645L191.433 8.36002L191.42 8.3746L191.8 8.7ZM193.95 8.9L193.528 9.16844L193.537 9.18153L193.546 9.19408L193.95 8.9ZM194.45 10.5L194.949 10.4767L194.949 10.4646L194.948 10.4526L194.45 10.5ZM195.45 31.9H195.95V31.8883L195.949 31.8767L195.45 31.9ZM195.1 33.25L195.476 33.5793L195.486 33.5684L195.495 33.557L195.1 33.25ZM193 33.25L193.376 32.9207L193 33.25ZM192.65 31.95H193.15V31.9388L193.15 31.9277L192.65 31.95ZM192.15 20.75L192.65 20.7277L192.625 20.1822L192.084 20.2544L192.15 20.75ZM182.4 22.05L182.334 21.5544L181.877 21.6153L181.901 22.0758L182.4 22.05ZM182.8 29.8H183.3V29.7871L183.299 29.7742L182.8 29.8ZM182.4 31.15L182.026 30.8178L182.024 30.8207L182.4 31.15ZM180.35 31.15L179.974 31.4793L180.35 31.15ZM180 29.85H180.5V29.8382L180.499 29.8264L180 29.85ZM179.637 11.7376C179.556 11.386 179.624 11.2408 179.68 11.1754L178.92 10.5246C178.576 10.9259 178.544 11.4473 178.663 11.9624L179.637 11.7376ZM179.676 11.1793C179.781 11.06 179.983 10.95 180.4 10.95V9.95C179.817 9.95 179.286 10.1067 178.924 10.5207L179.676 11.1793ZM180.4 10.95C180.691 10.95 180.875 11.057 181.018 11.3019L181.882 10.7981C181.558 10.243 181.043 9.95 180.4 9.95V10.95ZM181.046 11.3441C181.238 11.609 181.39 12.0416 181.452 12.6974L182.448 12.6026C182.377 11.8584 182.195 11.2244 181.854 10.7559L181.046 11.3441ZM181.45 12.6722L181.75 19.4222L182.75 19.3778L182.45 12.6278L181.45 12.6722ZM182.316 19.8956L192.016 18.5956L191.884 17.6044L182.184 18.9044L182.316 19.8956ZM192.45 18.0792L192.1 9.67918L191.1 9.72081L191.45 18.1208L192.45 18.0792ZM192.094 9.62397C192.04 9.27125 192.11 9.10711 192.18 9.0254L191.42 8.3746C191.09 8.75955 191.027 9.26208 191.106 9.77603L192.094 9.62397ZM192.154 9.05355C192.254 8.95271 192.465 8.85 192.9 8.85V7.85C192.335 7.85 191.812 7.98062 191.446 8.34645L192.154 9.05355ZM192.9 8.85C193.211 8.85 193.394 8.95829 193.528 9.16844L194.372 8.63156C194.039 8.10837 193.523 7.85 192.9 7.85V8.85ZM193.546 9.19408C193.738 9.45897 193.89 9.89157 193.952 10.5474L194.948 10.4526C194.877 9.70843 194.695 9.07436 194.354 8.60591L193.546 9.19408ZM193.951 10.5233L194.951 31.9233L195.949 31.8767L194.949 10.4767L193.951 10.5233ZM194.95 31.9C194.95 32.449 194.841 32.7687 194.705 32.943L195.495 33.557C195.826 33.1313 195.95 32.551 195.95 31.9H194.95ZM194.724 32.9207C194.606 33.0551 194.424 33.15 194.1 33.15V34.15C194.643 34.15 195.127 33.9782 195.476 33.5793L194.724 32.9207ZM194.1 33.15C193.683 33.15 193.481 33.04 193.376 32.9207L192.624 33.5793C192.986 33.9933 193.517 34.15 194.1 34.15V33.15ZM193.376 32.9207C193.262 32.7902 193.15 32.5063 193.15 31.95H192.15C192.15 32.5937 192.271 33.1765 192.624 33.5793L193.376 32.9207ZM193.15 31.9277L192.65 20.7277L191.65 20.7723L192.15 31.9723L193.15 31.9277ZM192.084 20.2544L182.334 21.5544L182.466 22.5456L192.216 21.2456L192.084 20.2544ZM181.901 22.0758L182.301 29.8258L183.299 29.7742L182.899 22.0242L181.901 22.0758ZM182.3 29.8C182.3 30.3365 182.18 30.6455 182.026 30.8178L182.774 31.4822C183.154 31.0545 183.3 30.4635 183.3 29.8H182.3ZM182.024 30.8207C181.906 30.9551 181.724 31.05 181.4 31.05V32.05C181.943 32.05 182.427 31.8782 182.776 31.4793L182.024 30.8207ZM181.4 31.05C181.029 31.05 180.837 30.9471 180.726 30.8207L179.974 31.4793C180.33 31.8862 180.838 32.05 181.4 32.05V31.05ZM180.726 30.8207C180.612 30.6902 180.5 30.4063 180.5 29.85H179.5C179.5 30.4937 179.621 31.0765 179.974 31.4793L180.726 30.8207ZM180.499 29.8264L179.649 11.8264L178.651 11.8736L179.501 29.8736L180.499 29.8264ZM220.293 10.95L220.676 10.629L220.669 10.6197L220.66 10.6109L220.293 10.95ZM226.043 19.75L225.596 19.9736L226.043 19.75ZM229.943 30.2L230.431 30.0915L230.429 30.0816L230.426 30.0717L229.943 30.2ZM229.843 31.6L229.414 31.3428L229.404 31.3592L229.396 31.3764L229.843 31.6ZM228.943 32.25L228.831 31.7628L228.802 31.7693L228.775 31.7791L228.943 32.25ZM227.793 32.15L227.461 32.5237L227.473 32.5346L227.486 32.5447L227.793 32.15ZM227.193 30.9L227.685 30.8131L227.682 30.7943L227.677 30.7758L227.193 30.9ZM226.043 27.1L225.566 27.2506L225.569 27.2582L225.571 27.2657L226.043 27.1ZM224.743 23.5L225.205 23.3096L225.064 22.9671L224.695 23.0023L224.743 23.5ZM213.743 24.55L213.695 24.0523L213.306 24.0895L213.248 24.4767L213.743 24.55ZM213.493 27.25L213.993 27.2692L213.993 27.2685L213.493 27.25ZM213.493 29.9H213.993V29.8907L213.993 29.8815L213.493 29.9ZM213.093 31.25L212.719 30.9178L212.717 30.9207L213.093 31.25ZM211.043 31.25L210.667 31.5793L211.043 31.25ZM211.943 19.95L211.461 19.8154L211.46 19.8202L211.943 19.95ZM215.943 11.35L216.356 11.6322L216.362 11.623L216.368 11.6137L215.943 11.35ZM217.943 9.8L217.988 10.2979L217.998 10.2971L218.008 10.2958L217.943 9.8ZM223.593 20.95L223.639 21.4479L224.367 21.3809L224.04 20.7264L223.593 20.95ZM221.293 16.95L220.867 17.212L220.871 17.2185L220.875 17.2248L221.293 16.95ZM218.743 13.3L219.135 12.9891L219.103 12.9488L219.063 12.9159L218.743 13.3ZM217.843 13.3L217.414 13.0427L217.413 13.0443L217.843 13.3ZM215.693 17.55L216.153 17.747L216.154 17.7431L215.693 17.55ZM214.343 21.8L213.854 21.6976L213.715 22.3598L214.389 22.2979L214.343 21.8ZM219.91 11.271C222.117 13.907 224.013 16.8075 225.596 19.9736L226.49 19.5264C224.873 16.2925 222.935 13.3264 220.676 10.629L219.91 11.271ZM225.596 19.9736C227.179 23.1406 228.468 26.5917 229.46 30.3283L230.426 30.0717C229.418 26.275 228.107 22.7594 226.49 19.5264L225.596 19.9736ZM229.455 30.3085C229.576 30.8532 229.519 31.1681 229.414 31.3428L230.272 31.8572C230.567 31.3652 230.577 30.7468 230.431 30.0915L229.455 30.3085ZM229.396 31.3764C229.309 31.5502 229.15 31.6892 228.831 31.7628L229.055 32.7372C229.603 32.6108 230.044 32.3165 230.29 31.8236L229.396 31.3764ZM228.775 31.7791C228.414 31.908 228.225 31.8522 228.1 31.7553L227.486 32.5447C227.961 32.9145 228.539 32.9253 229.111 32.7209L228.775 31.7791ZM228.125 31.7763C227.939 31.6109 227.774 31.3157 227.685 30.8131L226.701 30.9869C226.812 31.6177 227.047 32.1558 227.461 32.5237L228.125 31.7763ZM227.677 30.7758C227.34 29.4622 226.953 28.1816 226.515 26.9343L225.571 27.2657C226 28.4851 226.379 29.7378 226.709 31.0242L227.677 30.7758ZM226.52 26.9494C226.116 25.6704 225.678 24.457 225.205 23.3096L224.281 23.6904C224.741 24.8096 225.17 25.9963 225.566 27.2506L226.52 26.9494ZM224.695 23.0023L213.695 24.0523L213.79 25.0477L224.79 23.9977L224.695 23.0023ZM213.248 24.4767C213.112 25.3947 213.027 26.313 212.993 27.2315L213.993 27.2685C214.025 26.387 214.107 25.5053 214.238 24.6233L213.248 24.4767ZM212.993 27.2308C212.96 28.1105 212.96 29.0064 212.993 29.9185L213.993 29.8815C213.96 28.9936 213.96 28.1228 213.993 27.2692L212.993 27.2308ZM212.993 29.9C212.993 30.4365 212.872 30.7455 212.719 30.9178L213.467 31.5822C213.847 31.1545 213.993 30.5635 213.993 29.9H212.993ZM212.717 30.9207C212.591 31.0642 212.419 31.15 212.143 31.15V32.15C212.666 32.15 213.128 31.9691 213.469 31.5793L212.717 30.9207ZM212.143 31.15C211.726 31.15 211.524 31.04 211.419 30.9207L210.667 31.5793C211.029 31.9933 211.56 32.15 212.143 32.15V31.15ZM211.419 30.9207C211.305 30.7902 211.193 30.5063 211.193 29.95H210.193C210.193 30.5937 210.314 31.1765 210.667 31.5793L211.419 30.9207ZM211.193 29.95C211.193 26.4224 211.605 23.1331 212.426 20.0798L211.46 19.8202C210.614 22.9669 210.193 26.3443 210.193 29.95H211.193ZM212.425 20.0846C213.277 17.0367 214.587 14.22 216.356 11.6322L215.53 11.0678C213.699 13.7467 212.343 16.6633 211.461 19.8154L212.425 20.0846ZM216.368 11.6137C216.931 10.706 217.481 10.344 217.988 10.2979L217.898 9.30205C216.938 9.38932 216.155 10.0607 215.518 11.0863L216.368 11.6137ZM218.008 10.2958C218.542 10.2261 219.175 10.4765 219.926 11.2891L220.66 10.6109C219.81 9.69013 218.877 9.17389 217.878 9.3042L218.008 10.2958ZM224.04 20.7264C223.332 19.3093 222.555 17.9588 221.711 16.6752L220.875 17.2248C221.697 18.4745 222.454 19.7907 223.146 21.1736L224.04 20.7264ZM221.719 16.688C220.909 15.3719 220.048 14.1388 219.135 12.9891L218.351 13.6109C219.238 14.7279 220.077 15.9281 220.867 17.212L221.719 16.688ZM219.063 12.9159C218.821 12.7142 218.527 12.55 218.193 12.55V13.55C218.193 13.55 218.193 13.55 218.193 13.55C218.193 13.55 218.193 13.55 218.193 13.55C218.193 13.55 218.193 13.55 218.193 13.55C218.193 13.55 218.193 13.55 218.194 13.55C218.194 13.5501 218.195 13.5501 218.196 13.5502C218.198 13.5505 218.201 13.551 218.205 13.552C218.214 13.5542 218.229 13.5586 218.249 13.5677C218.29 13.5863 218.348 13.6215 218.423 13.6841L219.063 12.9159ZM218.193 12.55C217.811 12.55 217.559 12.8008 217.414 13.0428L218.272 13.5572C218.298 13.513 218.31 13.5097 218.296 13.5194C218.288 13.525 218.274 13.5333 218.254 13.54C218.234 13.5467 218.213 13.55 218.193 13.55V12.55ZM217.413 13.0443C216.569 14.4634 215.841 15.901 215.232 17.3569L216.154 17.7431C216.745 16.3324 217.451 14.9366 218.273 13.5557L217.413 13.0443ZM215.233 17.353C214.621 18.7823 214.161 20.2305 213.854 21.6976L214.832 21.9024C215.125 20.5028 215.565 19.1177 216.153 17.747L215.233 17.353ZM214.389 22.2979L223.639 21.4479L223.547 20.4521L214.297 21.3021L214.389 22.2979ZM246.675 13.45L246.176 13.4833L246.176 13.4848L246.675 13.45ZM247.125 19.9L246.626 19.9348L246.656 20.3594L247.08 20.3979L247.125 19.9ZM248.775 20.05L248.83 19.553L248.82 19.5521L248.775 20.05ZM251.275 20L251.193 19.5068L251.189 19.5074L251.275 20ZM253.425 19.15L253.164 18.7234L253.153 18.7301L253.143 18.7373L253.425 19.15ZM254.875 13.7L254.413 13.8904L254.417 13.9004L254.875 13.7ZM253.925 12.4L254.225 12L254.211 11.9892L254.195 11.9794L253.925 12.4ZM252.325 11.8L252.217 12.2881L252.23 12.291L252.243 12.2932L252.325 11.8ZM250.275 11.6V11.1H250.253L250.231 11.102L250.275 11.6ZM248.025 11.8L248.058 12.299L248.069 12.298L248.025 11.8ZM246.925 12.3L246.53 11.993L246.525 12L246.925 12.3ZM247.375 22.6L247.399 22.1006L246.839 22.0739L246.876 22.6329L247.375 22.6ZM247.925 30.95L248.424 30.9223L248.424 30.9171L247.925 30.95ZM247.575 32.3L247.929 32.6536L247.939 32.6432L247.949 32.6322L247.575 32.3ZM246.425 32.55L246.523 32.0597L246.495 32.0541L246.467 32.0517L246.425 32.55ZM245.475 32.05L245.059 32.3274L245.069 32.3425L245.08 32.357L245.475 32.05ZM245.125 30.7L245.624 30.6723L245.624 30.6652L245.125 30.7ZM243.925 13.5L244.424 13.4652L244.423 13.4508L244.421 13.4364L243.925 13.5ZM244.475 10.5L244.086 10.1854L244.082 10.1911L244.077 10.197L244.475 10.5ZM247.125 9.25L247.085 8.75162L247.077 8.75222L247.07 8.75306L247.125 9.25ZM250.225 9L250.265 9.49841L250.27 9.49795L250.225 9ZM253.225 9.25L253.083 9.72942L253.088 9.73076L253.225 9.25ZM255.775 10.45L256.1 10.0704L256.081 10.054L256.061 10.0395L255.775 10.45ZM257.425 12.6L256.974 12.8164L257.425 12.6ZM257.325 18.65L257.769 18.8802L257.772 18.8736L257.325 18.65ZM255.325 21L255.02 20.6035L255.009 20.6124L255.325 21ZM252.225 22.55L252.34 23.0368L252.35 23.0342L252.225 22.55ZM248.425 22.65L248.496 22.155L248.472 22.1517L248.449 22.1506L248.425 22.65ZM246.176 13.4848L246.626 19.9348L247.624 19.8652L247.174 13.4152L246.176 13.4848ZM247.08 20.3979L248.73 20.5479L248.82 19.5521L247.17 19.4021L247.08 20.3979ZM248.72 20.5469C249.659 20.6513 250.541 20.6352 251.361 20.4926L251.189 19.5074C250.476 19.6314 249.691 19.6487 248.83 19.5531L248.72 20.5469ZM251.357 20.4932C252.225 20.3486 253.011 20.0394 253.707 19.5627L253.143 18.7373C252.573 19.1273 251.925 19.3847 251.193 19.5068L251.357 20.4932ZM253.686 19.5766C254.362 19.1636 254.878 18.6116 255.222 17.9236L254.328 17.4764C254.072 17.9884 253.688 18.4031 253.164 18.7234L253.686 19.5766ZM255.222 17.9236C255.564 17.2394 255.725 16.4425 255.725 15.55H254.725C254.725 16.3241 254.586 16.9606 254.328 17.4764L255.222 17.9236ZM255.725 15.55C255.725 14.7947 255.599 14.1076 255.333 13.4996L254.417 13.9004C254.618 14.3591 254.725 14.9053 254.725 15.55H255.725ZM255.337 13.5096C255.077 12.8785 254.712 12.365 254.225 12L253.625 12.8C253.938 13.035 254.206 13.3882 254.413 13.8904L255.337 13.5096ZM254.195 11.9794C253.666 11.6393 253.068 11.4169 252.407 11.3068L252.243 12.2932C252.782 12.3831 253.25 12.5607 253.655 12.8206L254.195 11.9794ZM252.433 11.3119C251.79 11.169 251.07 11.1 250.275 11.1V12.1C251.014 12.1 251.66 12.1643 252.217 12.2881L252.433 11.3119ZM250.231 11.102L247.981 11.302L248.069 12.298L250.319 12.098L250.231 11.102ZM247.992 11.3011C247.397 11.3407 246.877 11.5474 246.53 11.993L247.32 12.607C247.44 12.4526 247.653 12.3259 248.058 12.2989L247.992 11.3011ZM246.525 12C246.225 12.4004 246.139 12.922 246.176 13.4833L247.174 13.4167C247.145 12.978 247.225 12.7329 247.325 12.6L246.525 12ZM246.876 22.6329L247.426 30.9829L248.424 30.9171L247.874 22.5671L246.876 22.6329ZM247.426 30.9777C247.455 31.5106 247.345 31.8062 247.201 31.9678L247.949 32.6322C248.338 32.1938 248.461 31.5894 248.424 30.9223L247.426 30.9777ZM247.221 31.9464C247.112 32.0554 246.923 32.1396 246.523 32.0597L246.327 33.0403C246.927 33.1604 247.504 33.0779 247.929 32.6536L247.221 31.9464ZM246.467 32.0517C246.197 32.0293 246.012 31.9259 245.87 31.743L245.08 32.357C245.405 32.7741 245.853 33.0041 246.383 33.0483L246.467 32.0517ZM245.891 31.7726C245.763 31.5812 245.656 31.2359 245.624 30.6723L244.626 30.7277C244.661 31.3641 244.787 31.9188 245.059 32.3274L245.891 31.7726ZM245.624 30.6652L244.424 13.4652L243.426 13.5348L244.626 30.7348L245.624 30.6652ZM244.421 13.4364C244.263 12.2037 244.451 11.3569 244.873 10.803L244.077 10.197C243.433 11.0431 243.254 12.1963 243.429 13.5636L244.421 13.4364ZM244.864 10.8146C245.322 10.2479 246.065 9.87084 247.18 9.74694L247.07 8.75306C245.785 8.89583 244.761 9.35211 244.086 10.1854L244.864 10.8146ZM247.165 9.74838L250.265 9.49838L250.185 8.50162L247.085 8.75162L247.165 9.74838ZM250.27 9.49795C251.318 9.40268 252.253 9.48359 253.083 9.7294L253.367 8.7706C252.397 8.48307 251.332 8.39732 250.18 8.50205L250.27 9.49795ZM253.088 9.73076C253.97 9.98291 254.77 10.3598 255.489 10.8605L256.061 10.0395C255.247 9.47355 254.347 9.05042 253.362 8.76924L253.088 9.73076ZM255.45 10.8296C256.097 11.3844 256.604 12.0454 256.974 12.8164L257.876 12.3836C257.446 11.4879 256.853 10.7156 256.1 10.0704L255.45 10.8296ZM256.974 12.8164C257.335 13.5687 257.525 14.475 257.525 15.55H258.525C258.525 14.3584 258.315 13.298 257.876 12.3836L256.974 12.8164ZM257.525 15.55C257.525 16.6125 257.307 17.5683 256.878 18.4264L257.772 18.8736C258.277 17.865 258.525 16.7541 258.525 15.55H257.525ZM256.881 18.4198C256.451 19.25 255.834 19.978 255.02 20.6037L255.63 21.3963C256.55 20.6886 257.266 19.85 257.769 18.8802L256.881 18.4198ZM255.009 20.6124C254.167 21.2983 253.2 21.7831 252.1 22.0658L252.35 23.0342C253.583 22.7169 254.683 22.1683 255.641 21.3876L255.009 20.6124ZM252.11 22.0633C251.049 22.313 249.847 22.348 248.496 22.155L248.354 23.145C249.803 23.352 251.134 23.3204 252.34 23.0367L252.11 22.0633ZM248.449 22.1506L247.399 22.1006L247.351 23.0994L248.401 23.1494L248.449 22.1506ZM274.8 13.45L274.301 13.4833L274.301 13.4848L274.8 13.45ZM275.25 19.9L274.751 19.9348L274.781 20.3594L275.205 20.3979L275.25 19.9ZM276.9 20.05L276.955 19.553L276.945 19.5521L276.9 20.05ZM279.4 20L279.318 19.5068L279.314 19.5074L279.4 20ZM281.55 19.15L281.289 18.7234L281.278 18.7301L281.268 18.7373L281.55 19.15ZM283 13.7L282.538 13.8904L282.542 13.9004L283 13.7ZM282.05 12.4L282.35 12L282.336 11.9892L282.32 11.9794L282.05 12.4ZM280.45 11.8L280.342 12.2881L280.355 12.291L280.368 12.2932L280.45 11.8ZM278.4 11.6V11.1H278.378L278.356 11.102L278.4 11.6ZM276.15 11.8L276.183 12.299L276.194 12.298L276.15 11.8ZM275.05 12.3L274.655 11.993L274.65 12L275.05 12.3ZM275.5 22.6L275.524 22.1006L274.964 22.0739L275.001 22.6329L275.5 22.6ZM276.05 30.95L276.549 30.9223L276.549 30.9171L276.05 30.95ZM275.7 32.3L276.054 32.6536L276.064 32.6432L276.074 32.6322L275.7 32.3ZM274.55 32.55L274.648 32.0597L274.62 32.0541L274.592 32.0517L274.55 32.55ZM273.6 32.05L273.184 32.3274L273.194 32.3425L273.205 32.357L273.6 32.05ZM273.25 30.7L273.749 30.6723L273.749 30.6652L273.25 30.7ZM272.05 13.5L272.549 13.4652L272.548 13.4508L272.546 13.4364L272.05 13.5ZM272.6 10.5L272.211 10.1854L272.207 10.1911L272.202 10.197L272.6 10.5ZM275.25 9.25L275.21 8.75162L275.202 8.75222L275.195 8.75306L275.25 9.25ZM278.35 9L278.39 9.49841L278.395 9.49795L278.35 9ZM281.35 9.25L281.208 9.72942L281.213 9.73076L281.35 9.25ZM283.9 10.45L284.225 10.0704L284.206 10.054L284.186 10.0395L283.9 10.45ZM285.55 12.6L285.099 12.8164L285.55 12.6ZM285.45 18.65L285.894 18.8802L285.897 18.8736L285.45 18.65ZM283.45 21L283.145 20.6035L283.134 20.6124L283.45 21ZM280.35 22.55L280.465 23.0368L280.475 23.0342L280.35 22.55ZM276.55 22.65L276.621 22.155L276.597 22.1517L276.574 22.1506L276.55 22.65ZM274.301 13.4848L274.751 19.9348L275.749 19.8652L275.299 13.4152L274.301 13.4848ZM275.205 20.3979L276.855 20.5479L276.945 19.5521L275.295 19.4021L275.205 20.3979ZM276.845 20.5469C277.784 20.6513 278.666 20.6352 279.486 20.4926L279.314 19.5074C278.601 19.6314 277.816 19.6487 276.955 19.5531L276.845 20.5469ZM279.482 20.4932C280.35 20.3486 281.136 20.0394 281.832 19.5627L281.268 18.7373C280.698 19.1273 280.05 19.3847 279.318 19.5068L279.482 20.4932ZM281.811 19.5766C282.487 19.1636 283.003 18.6116 283.347 17.9236L282.453 17.4764C282.197 17.9884 281.813 18.4031 281.289 18.7234L281.811 19.5766ZM283.347 17.9236C283.689 17.2394 283.85 16.4425 283.85 15.55H282.85C282.85 16.3241 282.711 16.9606 282.453 17.4764L283.347 17.9236ZM283.85 15.55C283.85 14.7947 283.724 14.1076 283.458 13.4996L282.542 13.9004C282.743 14.3591 282.85 14.9053 282.85 15.55H283.85ZM283.462 13.5096C283.202 12.8785 282.837 12.365 282.35 12L281.75 12.8C282.063 13.035 282.331 13.3882 282.538 13.8904L283.462 13.5096ZM282.32 11.9794C281.791 11.6393 281.193 11.4169 280.532 11.3068L280.368 12.2932C280.907 12.3831 281.375 12.5607 281.78 12.8206L282.32 11.9794ZM280.558 11.3119C279.915 11.169 279.195 11.1 278.4 11.1V12.1C279.139 12.1 279.785 12.1643 280.342 12.2881L280.558 11.3119ZM278.356 11.102L276.106 11.302L276.194 12.298L278.444 12.098L278.356 11.102ZM276.117 11.3011C275.522 11.3407 275.002 11.5474 274.655 11.993L275.445 12.607C275.565 12.4526 275.778 12.3259 276.183 12.2989L276.117 11.3011ZM274.65 12C274.35 12.4004 274.264 12.922 274.301 13.4833L275.299 13.4167C275.27 12.978 275.35 12.7329 275.45 12.6L274.65 12ZM275.001 22.6329L275.551 30.9829L276.549 30.9171L275.999 22.5671L275.001 22.6329ZM275.551 30.9777C275.58 31.5106 275.47 31.8062 275.326 31.9678L276.074 32.6322C276.463 32.1938 276.586 31.5894 276.549 30.9223L275.551 30.9777ZM275.346 31.9464C275.237 32.0554 275.048 32.1396 274.648 32.0597L274.452 33.0403C275.052 33.1604 275.629 33.0779 276.054 32.6536L275.346 31.9464ZM274.592 32.0517C274.322 32.0293 274.137 31.9259 273.995 31.743L273.205 32.357C273.53 32.7741 273.978 33.0041 274.508 33.0483L274.592 32.0517ZM274.016 31.7726C273.888 31.5812 273.781 31.2359 273.749 30.6723L272.751 30.7277C272.786 31.3641 272.912 31.9188 273.184 32.3274L274.016 31.7726ZM273.749 30.6652L272.549 13.4652L271.551 13.5348L272.751 30.7348L273.749 30.6652ZM272.546 13.4364C272.388 12.2037 272.576 11.3569 272.998 10.803L272.202 10.197C271.558 11.0431 271.379 12.1963 271.554 13.5636L272.546 13.4364ZM272.989 10.8146C273.447 10.2479 274.19 9.87084 275.305 9.74694L275.195 8.75306C273.91 8.89583 272.886 9.35211 272.211 10.1854L272.989 10.8146ZM275.29 9.74838L278.39 9.49838L278.31 8.50162L275.21 8.75162L275.29 9.74838ZM278.395 9.49795C279.443 9.40268 280.378 9.48359 281.208 9.7294L281.492 8.7706C280.522 8.48307 279.457 8.39732 278.305 8.50205L278.395 9.49795ZM281.213 9.73076C282.095 9.98291 282.895 10.3598 283.614 10.8605L284.186 10.0395C283.372 9.47355 282.472 9.05042 281.487 8.76924L281.213 9.73076ZM283.575 10.8296C284.222 11.3844 284.729 12.0454 285.099 12.8164L286.001 12.3836C285.571 11.4879 284.978 10.7156 284.225 10.0704L283.575 10.8296ZM285.099 12.8164C285.46 13.5687 285.65 14.475 285.65 15.55H286.65C286.65 14.3584 286.44 13.298 286.001 12.3836L285.099 12.8164ZM285.65 15.55C285.65 16.6125 285.432 17.5683 285.003 18.4264L285.897 18.8736C286.402 17.865 286.65 16.7541 286.65 15.55H285.65ZM285.006 18.4198C284.576 19.25 283.959 19.978 283.145 20.6037L283.755 21.3963C284.675 20.6886 285.391 19.85 285.894 18.8802L285.006 18.4198ZM283.134 20.6124C282.292 21.2983 281.325 21.7831 280.225 22.0658L280.475 23.0342C281.708 22.7169 282.808 22.1683 283.766 21.3876L283.134 20.6124ZM280.235 22.0633C279.174 22.313 277.972 22.348 276.621 22.155L276.479 23.145C277.928 23.352 279.259 23.3204 280.465 23.0367L280.235 22.0633ZM276.574 22.1506L275.524 22.1006L275.476 23.0994L276.526 23.1494L276.574 22.1506ZM311.275 19.25L310.976 18.8491L310.968 18.8553L311.275 19.25ZM310.675 19.95L311.122 20.1736L311.129 20.1605L311.135 20.147L310.675 19.95ZM310.125 31.55L309.771 31.1964L309.76 31.2082L309.749 31.2207L310.125 31.55ZM308.025 31.55L307.625 31.85L307.636 31.8651L307.649 31.8793L308.025 31.55ZM307.575 20.05L307.107 20.2256L307.111 20.2364L307.115 20.247L307.575 20.05ZM307.125 19.2L307.541 18.9226L307.525 18.8984L307.506 18.8762L307.125 19.2ZM301.175 12.2L301.556 11.8762L301.543 11.8608L301.529 11.8464L301.175 12.2ZM300.525 11L300.027 11.0415L300.525 11ZM301.025 9.85L301.379 10.2036L301.025 9.85ZM302.975 10L303.356 9.67577L303.343 9.66056L303.329 9.64644L302.975 10ZM308.725 16.75L309.149 16.485L309.129 16.4538L309.106 16.4258L308.725 16.75ZM309.175 17.25L308.951 17.6972L309.011 17.7272L309.077 17.7403L309.175 17.25ZM309.675 17.15L309.932 17.5787L309.956 17.5648L309.977 17.5484L309.675 17.15ZM318.575 10.4L318.877 10.7984L318.888 10.7903L318.898 10.7817L318.575 10.4ZM320.875 10.4L321.279 10.1059L321.271 10.0944L321.262 10.0834L320.875 10.4ZM321.075 11.5L321.545 11.6709V11.6709L321.075 11.5ZM320.125 12.65L320.424 13.0508L320.431 13.0457L320.437 13.0404L320.125 12.65ZM310.968 18.8553C310.632 19.1168 310.361 19.4127 310.215 19.753L311.135 20.147C311.189 20.0206 311.318 19.8499 311.582 19.6447L310.968 18.8553ZM310.228 19.7264C310.097 19.9875 310.025 20.2636 310.025 20.55H311.025C311.025 20.4364 311.053 20.3125 311.122 20.1736L310.228 19.7264ZM310.025 20.55V30.25H311.025V20.55H310.025ZM310.025 30.25C310.025 30.793 309.902 31.0661 309.771 31.1964L310.479 31.9036C310.882 31.5006 311.025 30.907 311.025 30.25H310.025ZM309.749 31.2207C309.631 31.3551 309.449 31.45 309.125 31.45V32.45C309.668 32.45 310.152 32.2782 310.501 31.8793L309.749 31.2207ZM309.125 31.45C308.708 31.45 308.506 31.34 308.401 31.2207L307.649 31.8793C308.011 32.2933 308.542 32.45 309.125 32.45V31.45ZM308.425 31.25C308.324 31.1156 308.225 30.8179 308.225 30.25H307.225C307.225 30.8821 307.326 31.4511 307.625 31.85L308.425 31.25ZM308.225 30.25V20.8H307.225V30.25H308.225ZM308.225 20.8C308.225 20.4691 308.163 20.1517 308.035 19.853L307.115 20.247C307.187 20.4149 307.225 20.5976 307.225 20.8H308.225ZM308.043 19.8744C307.927 19.564 307.757 19.2465 307.541 18.9226L306.709 19.4773C306.893 19.7535 307.023 20.0027 307.107 20.2256L308.043 19.8744ZM307.506 18.8762L301.556 11.8762L300.794 12.5238L306.744 19.5238L307.506 18.8762ZM301.529 11.8464C301.178 11.4962 301.043 11.2004 301.023 10.9585L300.027 11.0415C300.073 11.5996 300.372 12.1038 300.821 12.5536L301.529 11.8464ZM301.023 10.9585C301.006 10.7455 301.083 10.4988 301.379 10.2036L300.671 9.49645C300.233 9.93452 299.978 10.4545 300.027 11.0415L301.023 10.9585ZM301.379 10.2036C301.603 9.97887 301.78 9.93295 301.925 9.94752L302.025 8.95248C301.504 8.90038 301.047 9.12113 300.671 9.49645L301.379 10.2036ZM301.925 9.94752C302.105 9.96548 302.337 10.0691 302.621 10.3536L303.329 9.64644C302.946 9.26421 302.512 9.00118 302.025 8.95248L301.925 9.94752ZM302.594 10.3242L308.344 17.0742L309.106 16.4258L303.356 9.67577L302.594 10.3242ZM308.301 17.015C308.473 17.2906 308.685 17.564 308.951 17.6972L309.399 16.8028C309.409 16.8078 309.386 16.7985 309.334 16.7405C309.285 16.6854 309.223 16.6027 309.149 16.485L308.301 17.015ZM309.077 17.7403C309.383 17.8015 309.675 17.7329 309.932 17.5787L309.418 16.7213C309.341 16.7671 309.3 16.7651 309.273 16.7597L309.077 17.7403ZM309.977 17.5484L318.877 10.7984L318.273 10.0016L309.373 16.7516L309.977 17.5484ZM318.898 10.7817C319.278 10.4599 319.584 10.35 319.825 10.35V9.35C319.266 9.35 318.738 9.60681 318.252 10.0183L318.898 10.7817ZM319.825 10.35C320.047 10.35 320.264 10.4422 320.488 10.7166L321.262 10.0834C320.886 9.62443 320.403 9.35 319.825 9.35V10.35ZM320.471 10.6941C320.658 10.9515 320.672 11.1459 320.605 11.3291L321.545 11.6709C321.745 11.1208 321.625 10.5818 321.279 10.1059L320.471 10.6941ZM320.605 11.3291C320.517 11.5707 320.282 11.8839 319.813 12.2596L320.437 13.0404C320.968 12.6161 321.366 12.1627 321.545 11.6709L320.605 11.3291ZM319.826 12.2492L310.976 18.8492L311.574 19.6508L320.424 13.0508L319.826 12.2492Z" fill="black" mask="url(#path-43-outside-2_1113_4153)"/>
</svg>
