<svg width="500" height="700" viewBox="0 0 500 700" fill="none" xmlns="http://www.w3.org/2000/svg">
<rect width="500" height="700" rx="20" fill="#ECF9FF"/>
<mask id="path-2-inside-1_1113_4198" fill="white">
<path fill-rule="evenodd" clip-rule="evenodd" d="M455.955 36.3513C455.985 35.9036 456 35.453 456 35C456 19.536 438.539 7 417 7C399.317 7 384.383 15.4489 379.602 27.0306C376.571 26.361 373.346 26 370 26C352.327 26 338 36.0736 338 48.5C338 54.4839 341.322 59.9222 346.741 63.9528C345.614 65.53 345 67.2292 345 69C345 77.2843 358.431 84 375 84C383.173 84 390.583 82.3657 395.994 79.715C402.688 81.1642 410.567 82 419 82C433.18 82 445.793 79.6371 453.84 75.9682C477.409 75.5172 496 70.3312 496 64C496 60.042 488.734 56.5316 477.529 54.3459C477.838 53.4233 478 52.4721 478 51.5C478 44.0709 468.558 37.8625 455.955 36.3513Z"/>
</mask>
<path fill-rule="evenodd" clip-rule="evenodd" d="M455.955 36.3513C455.985 35.9036 456 35.453 456 35C456 19.536 438.539 7 417 7C399.317 7 384.383 15.4489 379.602 27.0306C376.571 26.361 373.346 26 370 26C352.327 26 338 36.0736 338 48.5C338 54.4839 341.322 59.9222 346.741 63.9528C345.614 65.53 345 67.2292 345 69C345 77.2843 358.431 84 375 84C383.173 84 390.583 82.3657 395.994 79.715C402.688 81.1642 410.567 82 419 82C433.18 82 445.793 79.6371 453.84 75.9682C477.409 75.5172 496 70.3312 496 64C496 60.042 488.734 56.5316 477.529 54.3459C477.838 53.4233 478 52.4721 478 51.5C478 44.0709 468.558 37.8625 455.955 36.3513Z" fill="white"/>
<path d="M455.955 36.3513L455.456 36.3183L455.425 36.7913L455.896 36.8478L455.955 36.3513ZM379.602 27.0306L379.495 27.5188L379.904 27.6094L380.065 27.2214L379.602 27.0306ZM346.741 63.9528L347.147 64.2435L347.433 63.8444L347.039 63.5517L346.741 63.9528ZM395.994 79.715L396.1 79.2264L395.93 79.1896L395.774 79.266L395.994 79.715ZM453.84 75.9682L453.83 75.4683L453.726 75.4702L453.632 75.5132L453.84 75.9682ZM477.529 54.3459L477.055 54.1869L476.874 54.7275L477.433 54.8366L477.529 54.3459ZM455.5 35C455.5 35.442 455.485 35.8815 455.456 36.3183L456.454 36.3843C456.485 35.9256 456.5 35.4641 456.5 35H455.5ZM417 7.5C427.677 7.5 437.322 10.6078 444.286 15.6072C451.25 20.6072 455.5 27.4703 455.5 35H456.5C456.5 27.0658 452.02 19.9289 444.869 14.7948C437.717 9.66025 427.862 6.5 417 6.5V7.5ZM380.065 27.2214C384.742 15.8898 399.442 7.5 417 7.5V6.5C399.193 6.5 384.024 15.008 379.14 26.8398L380.065 27.2214ZM370 26.5C373.31 26.5 376.499 26.8571 379.495 27.5188L379.71 26.5424C376.643 25.8648 373.381 25.5 370 25.5V26.5ZM338.5 48.5C338.5 42.4937 341.962 37.0058 347.66 32.9991C353.357 28.9934 361.254 26.5 370 26.5V25.5C361.073 25.5 352.97 28.0434 347.085 32.1811C341.202 36.3178 337.5 42.0799 337.5 48.5H338.5ZM347.039 63.5517C341.711 59.5881 338.5 54.2851 338.5 48.5H337.5C337.5 54.6828 340.934 60.2564 346.442 64.354L347.039 63.5517ZM345.5 69C345.5 67.3506 346.07 65.751 347.147 64.2435L346.334 63.6622C345.157 65.309 344.5 67.1078 344.5 69H345.5ZM375 83.5C366.777 83.5 359.356 81.8323 354.01 79.1594C348.635 76.4715 345.5 72.8507 345.5 69H344.5C344.5 73.4335 348.081 77.3128 353.563 80.0538C359.075 82.8098 366.655 84.5 375 84.5V83.5ZM395.774 79.266C390.445 81.8768 383.113 83.5 375 83.5V84.5C383.234 84.5 390.722 82.8547 396.214 80.1641L395.774 79.266ZM419 81.5C410.598 81.5 402.755 80.6672 396.1 79.2264L395.888 80.2037C402.621 81.6613 410.535 82.5 419 82.5V81.5ZM453.632 75.5132C445.672 79.1425 433.137 81.5 419 81.5V82.5C433.222 82.5 445.913 80.1318 454.047 76.4231L453.632 75.5132ZM495.5 64C495.5 65.3211 494.525 66.7017 492.453 68.0594C490.402 69.4033 487.397 70.6423 483.623 71.708C476.081 73.8373 465.586 75.2433 453.83 75.4683L453.849 76.4681C465.662 76.2421 476.248 74.8296 483.894 72.6704C487.714 71.5918 490.829 70.319 493.001 68.8958C495.152 67.4864 496.5 65.8445 496.5 64H495.5ZM477.433 54.8366C483.014 55.9252 487.581 57.3381 490.739 58.9535C492.319 59.7615 493.522 60.6081 494.324 61.4698C495.123 62.329 495.5 63.1746 495.5 64H496.5C496.5 62.8464 495.968 61.769 495.056 60.7885C494.145 59.8106 492.832 58.9008 491.194 58.0632C487.918 56.3875 483.249 54.9523 477.625 53.8551L477.433 54.8366ZM477.5 51.5C477.5 52.4158 477.348 53.3135 477.055 54.1869L478.003 54.5048C478.329 53.5332 478.5 52.5284 478.5 51.5H477.5ZM455.896 36.8478C462.138 37.5962 467.568 39.5054 471.423 42.1202C475.285 44.7396 477.5 48.0151 477.5 51.5H478.5C478.5 47.5558 475.994 44.0126 471.985 41.2927C467.968 38.5682 462.376 36.6176 456.015 35.8549L455.896 36.8478Z" fill="black" mask="url(#path-2-inside-1_1113_4198)"/>
<mask id="path-4-inside-2_1113_4198" fill="white">
<path fill-rule="evenodd" clip-rule="evenodd" d="M114.31 143.51C114.31 143.704 114.307 143.898 114.301 144.091C115.483 143.914 116.699 143.822 117.94 143.822C129.571 143.822 139 151.921 139 161.911C139 171.901 129.571 180 117.94 180H38.0595C26.4287 180 17 171.901 17 161.911C17 151.921 26.4287 143.822 38.0595 143.822C39.0471 143.822 40.0188 143.88 40.9703 143.993C40.9663 143.832 40.9643 143.671 40.9643 143.51C40.9643 128.869 57.3832 117 77.6369 117C97.8906 117 114.31 128.869 114.31 143.51Z"/>
</mask>
<path fill-rule="evenodd" clip-rule="evenodd" d="M114.31 143.51C114.31 143.704 114.307 143.898 114.301 144.091C115.483 143.914 116.699 143.822 117.94 143.822C129.571 143.822 139 151.921 139 161.911C139 171.901 129.571 180 117.94 180H38.0595C26.4287 180 17 171.901 17 161.911C17 151.921 26.4287 143.822 38.0595 143.822C39.0471 143.822 40.0188 143.88 40.9703 143.993C40.9663 143.832 40.9643 143.671 40.9643 143.51C40.9643 128.869 57.3832 117 77.6369 117C97.8906 117 114.31 128.869 114.31 143.51Z" fill="white"/>
<path d="M114.301 144.091L113.801 144.076L113.783 144.674L114.375 144.585L114.301 144.091ZM40.9703 143.993L40.9113 144.49L41.4844 144.558L41.4701 143.981L40.9703 143.993ZM114.801 144.106C114.807 143.908 114.81 143.709 114.81 143.51H113.81C113.81 143.699 113.807 143.888 113.801 144.076L114.801 144.106ZM117.94 143.322C116.674 143.322 115.434 143.416 114.227 143.596L114.375 144.585C115.533 144.412 116.724 144.322 117.94 144.322V143.322ZM139.5 161.911C139.5 151.576 129.773 143.322 117.94 143.322V144.322C129.369 144.322 138.5 152.265 138.5 161.911H139.5ZM117.94 180.5C129.773 180.5 139.5 172.246 139.5 161.911H138.5C138.5 171.556 129.369 179.5 117.94 179.5V180.5ZM38.0595 180.5H117.94V179.5H38.0595V180.5ZM38.0595 179.5C26.6308 179.5 17.5 171.556 17.5 161.911H16.5C16.5 172.246 26.2266 180.5 38.0595 180.5V179.5ZM17.5 161.911C17.5 152.265 26.6308 144.322 38.0595 144.322V143.322C26.2266 143.322 16.5 151.576 16.5 161.911H17.5ZM38.0595 144.322C39.0274 144.322 39.9794 144.379 40.9113 144.49L41.0292 143.497C40.0582 143.381 39.0668 143.322 38.0595 143.322V144.322ZM40.4643 143.51C40.4643 143.675 40.4663 143.841 40.4704 144.006L41.4701 143.981C41.4662 143.824 41.4643 143.667 41.4643 143.51H40.4643ZM77.6369 116.5C67.4165 116.5 58.1432 119.494 51.4125 124.359C44.6825 129.224 40.4643 135.989 40.4643 143.51H41.4643C41.4643 136.39 45.4555 129.899 51.9984 125.17C58.5406 120.441 67.6036 117.5 77.6369 117.5V116.5ZM114.81 143.51C114.81 135.989 110.591 129.224 103.861 124.359C97.1306 119.494 87.8573 116.5 77.6369 116.5V117.5C87.6702 117.5 96.7332 120.441 103.275 125.17C109.818 129.899 113.81 136.39 113.81 143.51H114.81Z" fill="black" mask="url(#path-4-inside-2_1113_4198)"/>
<mask id="path-6-inside-3_1113_4198" fill="white">
<path fill-rule="evenodd" clip-rule="evenodd" d="M500 624.39V680C500 691.046 491.046 700 480 700H20C8.95432 700 0 691.046 0 680V624.157C74.6406 606.808 159.502 597 249.5 597C339.901 597 425.118 606.896 500 624.39Z"/>
</mask>
<path fill-rule="evenodd" clip-rule="evenodd" d="M500 624.39V680C500 691.046 491.046 700 480 700H20C8.95432 700 0 691.046 0 680V624.157C74.6406 606.808 159.502 597 249.5 597C339.901 597 425.118 606.896 500 624.39Z" fill="#BFDD9D"/>
<path d="M500 624.39H500.5V623.993L500.114 623.903L500 624.39ZM0 624.157L-0.113201 623.67L-0.5 623.76V624.157H0ZM499.5 624.39V680H500.5V624.39H499.5ZM499.5 680C499.5 690.77 490.77 699.5 480 699.5V700.5C491.322 700.5 500.5 691.322 500.5 680H499.5ZM480 699.5H20V700.5H480V699.5ZM20 699.5C9.23046 699.5 0.5 690.77 0.5 680H-0.5C-0.5 691.322 8.67817 700.5 20 700.5V699.5ZM0.5 680V624.157H-0.5V680H0.5ZM0.113201 624.644C74.7141 607.304 159.537 597.5 249.5 597.5V596.5C159.466 596.5 74.5672 606.312 -0.113201 623.67L0.113201 624.644ZM249.5 597.5C339.865 597.5 425.044 607.392 499.886 624.877L500.114 623.903C425.191 606.399 339.936 596.5 249.5 596.5V597.5Z" fill="black" mask="url(#path-6-inside-3_1113_4198)"/>
<path d="M0 625H500V680C500 691.046 491.046 700 480 700H20C8.95432 700 0 691.046 0 680V625Z" fill="#BFDD9D"/>
<line x1="269.23" y1="670.097" x2="272.624" y2="678.001" stroke="black" stroke-width="0.5"/>
<line y1="-0.25" x2="6.63156" y2="-0.25" transform="matrix(0.424918 0.905232 -0.930765 0.365618 350 628.135)" stroke="black" stroke-width="0.5"/>
<line y1="-0.25" x2="6.63156" y2="-0.25" transform="matrix(0.530505 0.847682 -0.880149 0.474698 414 675.945)" stroke="black" stroke-width="0.5"/>
<line x1="186.203" y1="620.8" x2="191.203" y2="627.8" stroke="black" stroke-width="0.5"/>
<line x1="277.492" y1="669.96" x2="276.986" y2="678.547" stroke="black" stroke-width="0.5"/>
<line y1="-0.25" x2="6.53535" y2="-0.25" transform="matrix(-0.0642896 0.997931 -0.99855 -0.0538333 356.844 627.945)" stroke="black" stroke-width="0.5"/>
<line y1="-0.25" x2="6.53535" y2="-0.25" transform="matrix(0.0559612 0.998433 -0.997792 0.0664162 421.426 674.988)" stroke="black" stroke-width="0.5"/>
<path d="M193.58 619L196.075 627.233" stroke="black" stroke-width="0.5"/>
<line x1="286.077" y1="671.955" x2="281.586" y2="679.292" stroke="black" stroke-width="0.5"/>
<line y1="-0.25" x2="6.70444" y2="-0.25" transform="matrix(-0.556031 0.831161 -0.87257 -0.488489 364 629.373)" stroke="black" stroke-width="0.5"/>
<line y1="-0.25" x2="6.70444" y2="-0.25" transform="matrix(-0.452243 0.891895 -0.924897 -0.380219 429.031 674.945)" stroke="black" stroke-width="0.5"/>
<path d="M205.824 619.109L203 627.235" stroke="black" stroke-width="0.5"/>
<line x1="39.2034" y1="675.8" x2="44.2034" y2="682.8" stroke="black" stroke-width="0.5"/>
<line x1="47.247" y1="673.907" x2="48.5817" y2="682.405" stroke="black" stroke-width="0.5"/>
<line x1="56.0604" y1="674.027" x2="53.236" y2="682.153" stroke="black" stroke-width="0.5"/>
</svg>
