<svg width="64" height="64" viewBox="0 0 64 64" fill="none" xmlns="http://www.w3.org/2000/svg">
<g filter="url(#filter0_i_859_9343)">
<path d="M32 9.53056L36.1502 14.3394L36.5943 14.854L37.2362 14.6304L43.2347 12.5409L44.4244 18.7806L44.5518 19.4482L45.2194 19.5756L51.4591 20.7653L49.3696 26.7638L49.146 27.4057L49.6606 27.8498L54.4694 32L49.6606 36.1502L49.146 36.5943L49.3696 37.2362L51.4591 43.2347L45.2194 44.4244L44.5518 44.5518L44.4244 45.2194L43.2347 51.4591L37.2362 49.3696L36.5943 49.146L36.1502 49.6606L32 54.4694L27.8498 49.6606L27.4057 49.146L26.7638 49.3696L20.7653 51.4591L19.5756 45.2194L19.4482 44.5518L18.7806 44.4244L12.5409 43.2347L14.6304 37.2362L14.854 36.5943L14.3394 36.1502L9.53056 32L14.3394 27.8498L14.854 27.4057L14.6304 26.7638L12.5409 20.7653L18.7806 19.5756L19.4482 19.4482L19.5756 18.7806L20.7653 12.5409L26.7638 14.6304L27.4057 14.854L27.8498 14.3394L32 9.53056Z" fill="#FFA74F" stroke="white" stroke-width="2"/>
<path d="M21 26.7391H23.3913V21H40.6087V26.7391H43V43H21V26.7391Z" fill="white"/>
<path d="M21 26.7391H23.3913M21 26.7391V43M21 26.7391L23.3913 29.1304M23.3913 26.7391V21H40.6087V26.7391M23.3913 26.7391V29.1304M40.6087 26.7391H43M40.6087 26.7391V29.1304M43 26.7391V43M43 26.7391L40.6087 29.1304M43 43H21M43 43L34.8696 34.8696M21 43L29.1304 34.8696M29.1304 34.8696L32 32L34.8696 34.8696M29.1304 34.8696L23.3913 29.1304M34.8696 34.8696L40.6087 29.1304M25.7826 23.8696H38.2174M25.7826 26.2609H38.2174M25.7826 28.6522H38.2174" stroke="black" stroke-linejoin="round"/>
</g>
<defs>
<filter id="filter0_i_859_9343" x="8" y="8" width="49" height="49" filterUnits="userSpaceOnUse" color-interpolation-filters="sRGB">
<feFlood flood-opacity="0" result="BackgroundImageFix"/>
<feBlend mode="normal" in="SourceGraphic" in2="BackgroundImageFix" result="shape"/>
<feColorMatrix in="SourceAlpha" type="matrix" values="0 0 0 0 0 0 0 0 0 0 0 0 0 0 0 0 0 0 127 0" result="hardAlpha"/>
<feOffset dx="1" dy="1"/>
<feGaussianBlur stdDeviation="0.5"/>
<feComposite in2="hardAlpha" operator="arithmetic" k2="-1" k3="1"/>
<feColorMatrix type="matrix" values="0 0 0 0 0 0 0 0 0 0 0 0 0 0 0 0 0 0 0.25 0"/>
<feBlend mode="normal" in2="shape" result="effect1_innerShadow_859_9343"/>
</filter>
</defs>
</svg>
